<svg width="54" height="53" viewBox="0 0 54 53" fill="none" xmlns="http://www.w3.org/2000/svg">
<path d="M24.8805 0.134571C14.2954 0.856281 5.10146 7.85373 1.50337 17.9472C0.949015 19.4743 0.436496 21.5976 0.195926 23.3025C-0.0446439 24.9447 -0.065563 28.4905 0.143628 30.1535C1.2105 38.6885 6.15788 46.1148 13.6051 50.3614C15.3205 51.3446 17.9772 52.4533 18.6571 52.4743C19.1905 52.4847 19.6403 52.2651 19.8704 51.8781C20.0586 51.5643 20.0691 51.3551 20.0377 49.0854C20.0273 47.7361 20.0063 46.6169 19.9959 46.6169C19.9854 46.6064 19.5984 46.6587 19.1382 46.7424C16.3873 47.1922 13.9398 46.5751 12.3813 45.0166C11.7747 44.4099 11.5864 44.1171 10.9797 42.8619C9.99654 40.8118 9.42127 40.0274 8.31255 39.222C7.4967 38.6362 7.0574 38.1969 7.0574 37.9773C7.0574 37.4543 8.32301 37.2765 9.32713 37.6635C10.6346 38.1551 11.5027 38.9082 12.4545 40.3621C13.7724 42.3598 15.4251 43.2489 17.5274 43.092C18.3328 43.0293 19.9645 42.5795 20.09 42.3808C20.1214 42.318 20.226 41.9833 20.2992 41.6381C20.4979 40.8014 21.0105 39.745 21.4498 39.2534C21.8682 38.7827 21.91 38.8141 20.5502 38.6258C19.4729 38.4793 17.6006 37.9982 16.7011 37.6426C12.9148 36.1469 10.7287 33.3542 9.91286 28.9716C9.65138 27.57 9.65138 24.1288 9.91286 23.041C10.2894 21.4826 10.9902 20.0601 11.9525 18.8781L12.4022 18.3238L12.2453 17.8322C11.7015 16.1482 11.7642 13.9621 12.4127 11.933C12.6219 11.2949 12.6637 11.2322 12.9775 11.1694C14.0967 10.9602 16.6593 11.8807 19.0022 13.3241L20.0273 13.9621L20.9373 13.7529C23.071 13.2613 24.0542 13.1567 26.7214 13.1567C29.399 13.1567 30.3718 13.2613 32.5055 13.7529L33.426 13.9621L34.2314 13.4601C35.8317 12.4559 37.4111 11.7133 38.4884 11.4414C39.3775 11.2217 40.1515 11.1171 40.4862 11.1799C40.779 11.2322 40.8313 11.3054 41.0301 11.933C41.6263 13.7948 41.7309 16.1586 41.2706 17.6021L41.051 18.2819L41.2602 18.5434C42.2852 19.809 43.0906 21.357 43.4776 22.8214C43.7496 23.8464 43.8542 26.4613 43.6764 27.9256C42.9023 34.2851 39.4193 37.7053 32.7879 38.6258C31.5328 38.7931 31.5537 38.7827 31.9198 39.1801C32.4009 39.6822 32.8612 40.5817 33.1226 41.5126C33.3318 42.2866 33.3528 42.6213 33.4051 47.0457C33.4783 52.1918 33.4574 52.0872 34.0954 52.3487C34.587 52.5579 35.1623 52.4847 36.1873 52.0768C39.8272 50.6647 42.6932 48.8239 45.4336 46.1253C49.7952 41.8369 52.5356 36.2724 53.2992 30.1535C53.5083 28.4905 53.4874 24.9447 53.2469 23.3025C51.4374 10.5523 41.2079 1.01318 28.4263 0.134571C26.7423 0.019516 26.5959 0.019516 24.8805 0.134571Z" fill="white"/>
</svg>
