<svg xmlns="http://www.w3.org/2000/svg" viewBox="0 0 69.61 68.48"><defs><style>.a{fill:#475c65;}.b{fill:#485d66;}.c{fill:#485c66;}.d{fill:#fed769;}.e{fill:#f0c24e;}.f{fill:#f0c14e;}.g{fill:#efc14e;}</style></defs><path class="a" d="M-13.85-43.16c-2.26-2.4-4.51-4.81-6.78-7.2-4-4.18-7.93-8.34-11.88-12.53a5.14,5.14,0,0,1,0-7.28A5.19,5.19,0,0,1-25-70.23Q-16-60.95-7.12-51.63a3.4,3.4,0,0,0,.86.78c.11-.4-.17-.62-.32-.87Q-12.16-61-17.75-70.26a4.82,4.82,0,0,1,3.09-7.3,4.9,4.9,0,0,1,5.28,2.41c2.7,4.32,5.37,8.67,8.08,13,1.92,3,3.67,6.22,5.8,9.14a15.85,15.85,0,0,0,5.21,4.59c1.48.81,2.33.37,2.55-1.29A59.5,59.5,0,0,1,14.3-60a7.36,7.36,0,0,1,10.06-4.67c.95.41,1.15.81.91,1.81a80.6,80.6,0,0,0-1.79,8,35.67,35.67,0,0,0,.25,10.57,85.71,85.71,0,0,1,1.29,13,14,14,0,0,1-4.11,10.52,53.47,53.47,0,0,1-9.5,8.07C5.3-8.84-.95-8.72-7.28-12.11a44.31,44.31,0,0,1-9.1-6.83c-.42-.39-.87-.76-1.25-1.19-3.33-3.73-7.72-5.91-12-8.26-4-2.19-8-4.42-12-6.65a4.4,4.4,0,0,1-1.76-6.14,4.38,4.38,0,0,1,6-1.87c5.42,2.75,10.83,5.53,16.25,8.29a2.93,2.93,0,0,0,1.18.48,2.29,2.29,0,0,0-.77-.73L-39.87-49.67a4.71,4.71,0,0,1-2-4.73,4.51,4.51,0,0,1,3.25-3.79,4.8,4.8,0,0,1,4.55.85c6.36,4.59,12.74,9.14,19.12,13.71.31.23.64.43,1,.65l.14.11.18,0-.07-.15Zm34-19.64a4.67,4.67,0,0,0-3.57,3.32,48,48,0,0,0-1.75,7.86,18.16,18.16,0,0,1-.55,3.27,3.5,3.5,0,0,1-5,2.25c-.46-.19-.9-.44-1.35-.66A21,21,0,0,1,1.6-53.17q-4.47-7.17-8.92-14.35c-1.34-2.14-2.66-4.3-4-6.43A2.47,2.47,0,0,0-14.77-75a2.42,2.42,0,0,0-.94,3.65c2.92,4.86,5.86,9.71,8.78,14.57a52.32,52.32,0,0,1,2.86,4.91,2.35,2.35,0,0,1-2.6,3.47,4.76,4.76,0,0,1-1.45-.94l-2.41-2.49q-8.07-8.4-16.16-16.81a2.53,2.53,0,0,0-3-.58,2.9,2.9,0,0,0-1.16,4.78Q-24.94-58.27-19-52.06c2.37,2.49,4.75,5,7.09,7.51a2.37,2.37,0,0,1,.54,2.79,2.37,2.37,0,0,1-2.48,1.37A9.6,9.6,0,0,1-16.66-42L-35.54-55.56a2.38,2.38,0,0,0-2.94-.13,2.48,2.48,0,0,0-.05,4.13c5.32,4.08,10.65,8.14,16,12.23,1.47,1.13,3,2.17,4.37,3.42a2.3,2.3,0,0,1,.85,2.45,2.37,2.37,0,0,1-2.05,1.78,5.56,5.56,0,0,1-2-.61c-1.64-.85-3.29-1.68-4.94-2.52l-11.86-6.07a2.05,2.05,0,0,0-2.65.2,2.17,2.17,0,0,0,.45,3.7c5.4,3,10.79,6,16.21,9a25.1,25.1,0,0,1,5.94,4.16c.8.8,1.64,1.56,2.46,2.34a54.6,54.6,0,0,0,7.63,6.27A18.13,18.13,0,0,0-3-12.74a7.25,7.25,0,0,0,.74.26A14.72,14.72,0,0,0,9.43-14.21a50.58,50.58,0,0,0,9.85-8.19,11.89,11.89,0,0,0,3.42-9,86.89,86.89,0,0,0-1.28-12.68A37.1,37.1,0,0,1,21.31-56c.33-2.12.89-4.18,1.42-6.25.12-.47,0-.61-.44-.67A4.39,4.39,0,0,0,20.16-62.8Z" transform="translate(44.25 78.15)"/><path class="b" d="M-28.48-13.91c-6.84-.47-12.11-3.56-15.52-9.69a1.25,1.25,0,0,1,0-1.48,1.17,1.17,0,0,1,2,.29A15.93,15.93,0,0,0-39.25-21,15.51,15.51,0,0,0-28.43-16.3a8.65,8.65,0,0,1,1,.05,1,1,0,0,1,1,1.07A1,1,0,0,1-27.32-14,9,9,0,0,1-28.48-13.91Z" transform="translate(44.25 78.15)"/><path class="c" d="M11.81-63a1.17,1.17,0,0,1-1,1.25,1.18,1.18,0,0,1-1.26-1.12A15.71,15.71,0,0,0,7-69.67,15.64,15.64,0,0,0-.45-75.73l-.34-.13c-.82-.33-1.15-.88-.92-1.53s.89-1,1.72-.63A17.92,17.92,0,0,1,11.52-64.8c.13.52.19,1,.27,1.57A.75.75,0,0,1,11.81-63Z" transform="translate(44.25 78.15)"/><path class="b" d="M6.2-61.87a1.18,1.18,0,0,1-1,1.25,1.18,1.18,0,0,1-1.28-1.1,11.4,11.4,0,0,0-2.12-5A11.33,11.33,0,0,0-2-69.93c-.82-.44-1.08-1-.75-1.68A1.2,1.2,0,0,1-1-72a13.54,13.54,0,0,1,7.15,9.68A4.2,4.2,0,0,1,6.2-61.87Z" transform="translate(44.25 78.15)"/><path class="c" d="M-28.48-19.7A13.48,13.48,0,0,1-37-24a11.92,11.92,0,0,1-1.74-2.38,1.18,1.18,0,0,1,.33-1.75,1.16,1.16,0,0,1,1.65.54A11.21,11.21,0,0,0-28.16-22,1.16,1.16,0,0,1-27-20.73C-27.1-20.09-27.62-19.68-28.48-19.7Z" transform="translate(44.25 78.15)"/><path class="d" d="M-19.39-31.68a2.37,2.37,0,0,0,2.05-1.78,2.3,2.3,0,0,0-.85-2.45c-1.36-1.25-2.9-2.29-4.37-3.42-5.32-4.09-10.65-8.15-16-12.23a2.48,2.48,0,0,1,.05-4.13l11.71,8.33c2.85,2,5.67,4.1,8.52,6.11a14.07,14.07,0,0,0,2.5,1.69c.88.37,1.47.1,1.86-.83a2.37,2.37,0,0,0,2.48-1.37,2.37,2.37,0,0,0-.54-2.79c-2.34-2.53-4.72-5-7.09-7.51q-5.88-6.22-11.78-12.42a2.9,2.9,0,0,1,1.16-4.78.81.81,0,0,0,.33.53c1.42,1.48,2.91,2.87,4.28,4.4s3.17,3.21,4.73,4.86c2.82,3,5.75,5.89,8.63,8.82.2.21.37.45.56.66a18.22,18.22,0,0,0,2.48,2.41c.93.69,1.75.3,2-.86a2.35,2.35,0,0,0,2.6-3.47,52.32,52.32,0,0,0-2.86-4.91c-2.92-4.86-5.86-9.71-8.78-14.57A2.42,2.42,0,0,1-14.77-75c.25.35.52.69.74,1.05,2.46,3.93,4.87,7.89,7.36,11.79,2.35,3.67,4.37,7.57,7.1,11a15,15,0,0,0,5.45,4.39,2.21,2.21,0,0,0,2.06.06c.45.22.89.47,1.35.66a3.5,3.5,0,0,0,5-2.25,18.16,18.16,0,0,0,.55-3.27,48,48,0,0,1,1.75-7.86,4.67,4.67,0,0,1,3.57-3.32c.2.13.16.3.11.51-.16.55-.27,1.12-.42,1.67a38,38,0,0,0-1.55,12,28.9,28.9,0,0,0,.36,4.07A110.43,110.43,0,0,1,20.05-33.4a12.86,12.86,0,0,1-3.94,10.2c-1.8,1.87-3.83,3.49-5.77,5.2a22.8,22.8,0,0,1-6.95,4.26,16.18,16.18,0,0,1-6.35,1,18.13,18.13,0,0,1-5.17-2.48,54.6,54.6,0,0,1-7.63-6.27c-.82-.78-1.66-1.54-2.46-2.34A25.1,25.1,0,0,0-24.16-28c-5.42-3-10.81-6-16.21-9a2.17,2.17,0,0,1-.45-3.7l12.35,6.25c.27.15.54.32.81.46,2.13,1.07,4.24,2.16,6.39,3.19A1.28,1.28,0,0,0-19.39-31.68Z" transform="translate(44.25 78.15)"/><path class="e" d="M-3-12.74a16.18,16.18,0,0,0,6.35-1,22.8,22.8,0,0,0,7-4.26c1.94-1.71,4-3.33,5.77-5.2a12.86,12.86,0,0,0,3.94-10.2,110.43,110.43,0,0,0-1.39-11.16,28.9,28.9,0,0,1-.36-4.07,38,38,0,0,1,1.55-12c.15-.55.26-1.12.42-1.67.05-.21.09-.38-.11-.51a4.39,4.39,0,0,1,2.13-.1c.41.06.56.2.44.67-.53,2.07-1.09,4.13-1.42,6.25a37.1,37.1,0,0,0,.11,11.85A86.89,86.89,0,0,1,22.7-31.45a11.89,11.89,0,0,1-3.42,9.05,50.58,50.58,0,0,1-9.85,8.19A14.72,14.72,0,0,1-2.22-12.48,7.25,7.25,0,0,1-3-12.74Z" transform="translate(44.25 78.15)"/><path class="f" d="M7.94-46.76a2.21,2.21,0,0,1-2.06-.06A15,15,0,0,1,.43-51.21c-2.73-3.42-4.75-7.32-7.1-11C-9.16-66.1-11.57-70.06-14-74c-.22-.36-.49-.7-.74-1.05a2.47,2.47,0,0,1,3.44,1.09c1.35,2.13,2.67,4.29,4,6.43q4.46,7.17,8.92,14.35A21,21,0,0,0,7.94-46.76Z" transform="translate(44.25 78.15)"/><path class="g" d="M-6.67-48.44c-.23,1.16-1,1.55-2,.86A18.22,18.22,0,0,1-11.13-50c-.19-.21-.36-.45-.56-.66-2.88-2.93-5.81-5.82-8.63-8.82-1.56-1.65-3.22-3.18-4.73-4.86s-2.86-2.92-4.28-4.4a.81.81,0,0,1-.33-.53,2.53,2.53,0,0,1,3,.58q8.1,8.39,16.16,16.81l2.41,2.49A4.76,4.76,0,0,0-6.67-48.44Z" transform="translate(44.25 78.15)"/><path class="g" d="M-13.89-40.39c-.39.93-1,1.2-1.86.83a14.07,14.07,0,0,1-2.5-1.69c-2.85-2-5.67-4.08-8.52-6.11l-11.71-8.33a2.38,2.38,0,0,1,2.94.13L-16.66-42A9.6,9.6,0,0,0-13.89-40.39Z" transform="translate(44.25 78.15)"/><path class="g" d="M-19.39-31.68a1.28,1.28,0,0,1-1.88.9c-2.15-1-4.26-2.12-6.39-3.19-.27-.14-.54-.31-.81-.46l-12.35-6.25a2.05,2.05,0,0,1,2.65-.2l11.86,6.07c1.65.84,3.3,1.67,4.94,2.52A5.56,5.56,0,0,0-19.39-31.68Z" transform="translate(44.25 78.15)"/></svg>