<svg width="54" height="54" viewBox="0 0 54 54" fill="none" xmlns="http://www.w3.org/2000/svg">
<path d="M24.1992 0.0674896C15.8315 0.935631 8.49936 5.48555 4.04359 12.5771C-1.05022 20.6728 -1.35355 31.1638 3.25912 39.5419C5.35103 43.3492 8.35293 46.6126 12.0556 49.0915C14.545 50.7546 18.3314 52.3444 21.2182 52.9197C23.4565 53.3694 24.3038 53.4531 26.7618 53.4531C29.2302 53.4531 30.2448 53.3485 32.3263 52.9197C41.5202 51.0056 49.2289 44.1023 52.1681 35.1489C53.1408 32.1993 53.486 29.9923 53.486 26.7289C53.486 23.5806 53.1513 21.3632 52.2726 18.6228C50.9757 14.5435 48.821 11.0082 45.7668 7.91216C41.5934 3.6865 36.4264 1.08207 30.4749 0.203461C29.1884 0.0151901 25.4752 -0.0684853 24.1992 0.0674896ZM32.3053 13.2361C34.0312 13.3511 35.1399 13.6022 36.2277 14.1251C38.2778 15.1188 39.4911 16.7819 40.0663 19.4072C40.2964 20.4846 40.2964 20.6415 40.2964 26.7289C40.2964 32.8164 40.2964 32.9733 40.0663 34.0506C39.4911 36.676 38.2778 38.339 36.2277 39.3327C34.3973 40.2113 32.5564 40.3787 25.3497 40.295C20.099 40.2322 19.5865 40.1904 18.1012 39.6674C17.0135 39.2909 16.2499 38.8097 15.4654 38.0148C14.6496 37.1885 14.1789 36.4354 13.7814 35.2849C13.2585 33.7473 13.2166 33.0674 13.2166 26.572C13.2166 21.3632 13.248 20.4846 13.4049 19.6373C13.8337 17.3258 14.8588 15.6418 16.4696 14.5958C17.7352 13.7695 19.074 13.3721 21.009 13.2361C22.7976 13.121 30.5586 13.121 32.3053 13.2361Z" fill="white"/>
<path d="M21.9503 15.6424C21.0612 15.6842 20.0048 15.7993 19.6178 15.8934C17.6305 16.3641 16.4067 17.567 15.936 19.5334C15.4653 21.4684 15.4653 31.9907 15.936 33.9257C16.4067 35.8607 17.6305 37.095 19.5655 37.5552C21.5005 38.0259 32.0228 38.0259 33.9579 37.5552C35.8824 37.095 37.1271 35.8503 37.5873 33.9257C38.058 31.9907 38.058 21.4684 37.5873 19.5334C37.1271 17.6088 35.8824 16.3641 33.9579 15.9039C32.6504 15.5901 26.1759 15.4541 21.9503 15.6424ZM34.8992 18.1213C35.4117 18.5083 35.6 18.8639 35.6 19.4601C35.6 20.6734 34.3867 21.437 33.2884 20.914C32.6504 20.6107 32.2739 19.7739 32.4517 19.0522C32.5354 18.6966 33.0165 18.1527 33.4035 17.9853C33.8114 17.7971 34.554 17.8598 34.8992 18.1213ZM28.8431 20.0877C31.0292 20.7885 32.6922 22.4516 33.4244 24.6899C33.6545 25.3907 33.6964 25.715 33.6964 26.7295C33.6964 27.7441 33.6545 28.0684 33.4244 28.7692C32.6818 31.018 31.0501 32.6497 28.8013 33.3923C28.1005 33.6224 27.7762 33.6642 26.7617 33.6642C25.3601 33.6642 24.3664 33.3923 23.2159 32.7229C22.3373 32.2104 21.2704 31.133 20.7683 30.2858C20.0885 29.1143 19.827 28.1311 19.827 26.7295C19.827 25.715 19.8688 25.3907 20.0989 24.6899C20.7997 22.5457 22.3582 20.9245 24.4292 20.1714C25.8308 19.6589 27.3997 19.638 28.8431 20.0877Z" fill="white"/>
<path d="M25.3602 22.4406C22.4942 23.3505 21.3332 26.9068 23.1009 29.3753C24.8686 31.8332 28.6549 31.8332 30.4226 29.3753C31.8556 27.367 31.3953 24.4906 29.408 23.0681C28.2784 22.2627 26.6885 22.0117 25.3602 22.4406Z" fill="white"/>
</svg>
