<svg width="54" height="54" viewBox="0 0 54 54" fill="none" xmlns="http://www.w3.org/2000/svg">
<path d="M24.1992 0.0674896C15.8315 0.935631 8.49936 5.48555 4.04359 12.5771C-1.05022 20.6728 -1.35355 31.1638 3.25912 39.5419C5.35103 43.3492 8.35293 46.6126 12.0556 49.0915C14.545 50.7546 18.3314 52.3444 21.2182 52.9197C23.4565 53.3694 24.3038 53.4531 26.7618 53.4531C29.2302 53.4531 30.2448 53.3485 32.3263 52.9197C41.5202 51.0056 49.2289 44.1023 52.1681 35.1489C53.1408 32.1993 53.486 29.9923 53.486 26.7289C53.486 23.5806 53.1513 21.3632 52.2726 18.6228C50.9757 14.5435 48.821 11.0082 45.7668 7.91216C41.5934 3.6865 36.4264 1.08207 30.4749 0.203461C29.1884 0.0151901 25.4752 -0.0684853 24.1992 0.0674896ZM18.551 14.5331C18.7497 14.6167 19.1472 14.9096 19.4296 15.1711C21.4274 17.0434 20.0886 20.3904 17.3482 20.38C14.9738 20.38 13.5513 17.7442 14.8274 15.7255C15.6014 14.5017 17.2226 13.9787 18.551 14.5331ZM34.8679 22.2836C36.9598 22.817 38.3091 24.1873 38.9158 26.3838C39.1354 27.1682 39.1459 27.4297 39.1877 33.1825L39.2191 39.1758H36.6565H34.0939L34.0625 34.1238C34.0312 29.2288 34.0207 29.0719 33.8011 28.528C33.2676 27.2205 32.64 26.7917 31.2594 26.7812C30.5377 26.7812 30.2762 26.8335 29.8787 27.0218C28.9583 27.4716 28.4144 28.3292 28.2261 29.6158C28.1738 30.0132 28.1215 32.3248 28.1215 34.7514V39.1758H25.6635H23.2055L23.2264 30.8814L23.2578 22.5974L25.6949 22.566L28.1215 22.5451V23.6329V24.7311L28.9897 23.8735C29.8892 22.9739 30.5377 22.5765 31.5941 22.2941C32.3367 22.0849 34.0939 22.0849 34.8679 22.2836ZM19.963 30.8605V39.1758H17.4005H14.8379V30.8605V22.5451H17.4005H19.963V30.8605Z" fill="white"/>
</svg>
