<svg width="54" height="54" viewBox="0 0 54 54" fill="none" xmlns="http://www.w3.org/2000/svg">
<path d="M24.198 0.622093C17.4934 1.31243 11.5314 4.31432 6.95014 9.29308C0.486123 16.3114 -1.67901 26.4886 1.34381 35.6512C2.71401 39.8036 4.87914 43.2762 8.04839 46.3932C12.2531 50.5247 17.3574 53.0036 23.4658 53.8718C24.7105 54.0496 28.8211 54.0391 30.1076 53.8613C36.2369 53.0141 41.519 50.3992 45.7656 46.1003C49.9913 41.8223 52.4702 36.7494 53.3488 30.5783C53.5266 29.3441 53.5266 25.223 53.3488 23.9888C52.8467 20.4639 51.8217 17.2842 50.2632 14.4706C49.0394 12.2427 47.6169 10.339 45.7656 8.46677C41.6027 4.25156 36.4252 1.63667 30.4737 0.758068C29.1872 0.569798 25.474 0.486122 24.198 0.622093ZM39.2597 16.7612C39.72 16.9599 39.9396 17.3992 39.9396 18.1314C39.9396 18.8008 35.5152 39.8036 35.2851 40.2639C34.9504 40.9124 34.2287 41.1529 33.4965 40.881C33.2455 40.7868 30.8293 39.0401 27.294 36.4147L26.4154 35.7662L24.5222 37.5757C23.1311 38.8937 22.5244 39.4166 22.2734 39.4689C22.0851 39.5108 21.9073 39.5212 21.8864 39.4899C21.855 39.4585 21.9282 37.9418 22.0538 36.101L22.2734 32.7748L23.016 32.0949C23.4135 31.7184 26.248 29.1558 29.3022 26.3945C32.3669 23.6227 34.8667 21.3007 34.8667 21.217C34.8667 21.1019 34.7517 21.0601 34.5006 21.0706C34.1973 21.081 32.6493 22.0119 26.3736 25.9552C22.1165 28.6433 18.5707 30.8398 18.508 30.8398C18.2255 30.8398 11.6256 28.7165 11.3118 28.5282C10.6424 28.1098 10.7888 27.4927 11.6569 27.0011C11.8871 26.8756 13.5501 26.1957 15.3596 25.5054C17.1691 24.8046 20.5894 23.4867 22.9428 22.5767C25.3067 21.6667 29.5114 20.0455 32.3041 18.9682C38.423 16.6043 38.3602 16.6252 38.6635 16.6148C38.7891 16.6148 39.061 16.6775 39.2597 16.7612Z" fill="white"/>
</svg>
